<mxfile host="app.diagrams.net" modified="2022-09-16T03:42:22.676Z" agent="5.0 (Macintosh; Intel Mac OS X 10_15_7) AppleWebKit/537.36 (KHTML, like Gecko) Chrome/105.0.0.0 Safari/537.36" etag="efrU1049OqVnIjPxKH9g" version="20.3.0" type="github">
  <diagram id="e1yjRyynDCnzsYyTbw_0" name="第 1 页">
    <mxGraphModel dx="946" dy="614" grid="1" gridSize="10" guides="1" tooltips="1" connect="1" arrows="1" fold="1" page="1" pageScale="1" pageWidth="850" pageHeight="1100" math="0" shadow="0">
      <root>
        <mxCell id="0" />
        <mxCell id="1" parent="0" />
        <mxCell id="mRwvPEuXFgoe5HohNPZy-1" value="渲染元素" style="ellipse;whiteSpace=wrap;html=1;" vertex="1" parent="1">
          <mxGeometry x="305" y="70" width="105" height="50" as="geometry" />
        </mxCell>
        <mxCell id="mRwvPEuXFgoe5HohNPZy-2" value="paragraph 渲染" style="ellipse;whiteSpace=wrap;html=1;" vertex="1" parent="1">
          <mxGeometry x="130" y="190" width="117" height="50" as="geometry" />
        </mxCell>
        <mxCell id="mRwvPEuXFgoe5HohNPZy-3" value="bookmarkStart render" style="ellipse;whiteSpace=wrap;html=1;" vertex="1" parent="1">
          <mxGeometry x="260" y="190" width="110" height="50" as="geometry" />
        </mxCell>
        <mxCell id="mRwvPEuXFgoe5HohNPZy-4" value="run render" style="ellipse;whiteSpace=wrap;html=1;" vertex="1" parent="1">
          <mxGeometry x="381" y="190" width="105" height="50" as="geometry" />
        </mxCell>
        <mxCell id="mRwvPEuXFgoe5HohNPZy-6" value="table render" style="ellipse;whiteSpace=wrap;html=1;" vertex="1" parent="1">
          <mxGeometry x="500" y="190" width="105" height="50" as="geometry" />
        </mxCell>
        <mxCell id="mRwvPEuXFgoe5HohNPZy-7" value="row render" style="ellipse;whiteSpace=wrap;html=1;" vertex="1" parent="1">
          <mxGeometry x="630" y="190" width="105" height="50" as="geometry" />
        </mxCell>
        <mxCell id="mRwvPEuXFgoe5HohNPZy-8" value="cell render" style="ellipse;whiteSpace=wrap;html=1;" vertex="1" parent="1">
          <mxGeometry x="760" y="190" width="105" height="50" as="geometry" />
        </mxCell>
      </root>
    </mxGraphModel>
  </diagram>
</mxfile>
